<svg width="135" height="25" viewBox="0 0 135 25" fill="none" xmlns="http://www.w3.org/2000/svg">
<path d="M19.6355 5.2605C18.1771 3.80216 15.7813 3.80216 14.323 5.2605L9.73962 9.73967C8.28129 11.3022 8.28129 13.5938 9.73962 15.1563C9.84379 15.2605 10.0521 15.3647 10.1563 15.4688L11.7188 13.9063C11.6146 13.8022 11.4063 13.698 11.3021 13.5938C10.6771 12.9688 10.6771 11.9272 11.3021 11.3022L15.8855 6.71883C16.5105 6.09383 17.5521 6.09383 18.1771 6.71883C18.8021 7.34383 18.8021 8.3855 18.1771 9.0105L16.823 10.3647C17.2396 11.198 17.3438 12.1355 17.2396 12.9688L19.6355 10.573C21.198 9.11466 21.198 6.71883 19.6355 5.2605Z" fill="black"/>
<path d="M14.7395 9.427L13.177 10.9895C13.177 10.9895 13.4895 11.1978 13.5937 11.302C14.2187 11.927 14.2187 12.9687 13.5937 13.5937L9.01038 18.177C8.38538 18.802 7.34371 18.802 6.71871 18.177C6.09371 17.552 6.09371 16.5103 6.71871 15.8853L8.07288 14.5312C7.65621 13.6978 7.96871 13.177 7.65621 11.927L5.26038 14.3228C3.80204 15.7812 3.80204 18.177 5.26038 19.6353C6.71871 21.0937 9.11454 21.0937 10.5729 19.6353L15.1562 15.052C16.6145 13.5937 16.6145 11.1978 15.1562 9.7395C14.9479 9.63534 14.7395 9.427 14.7395 9.427Z" fill="black"/>
<path d="M28.224 19V6.292H31.05V19H28.224ZM36.09 19V6.292H38.934V19H36.09ZM29.916 13.69V11.242H37.026V13.69H29.916ZM45.3324 19.198C44.4324 19.198 43.6164 19 42.8844 18.604C42.1644 18.196 41.5944 17.644 41.1744 16.948C40.7544 16.252 40.5444 15.472 40.5444 14.608C40.5444 13.744 40.7544 12.97 41.1744 12.286C41.5944 11.602 42.1644 11.062 42.8844 10.666C43.6044 10.258 44.4204 10.054 45.3324 10.054C46.2444 10.054 47.0604 10.252 47.7804 10.648C48.5004 11.044 49.0704 11.59 49.4904 12.286C49.9104 12.97 50.1204 13.744 50.1204 14.608C50.1204 15.472 49.9104 16.252 49.4904 16.948C49.0704 17.644 48.5004 18.196 47.7804 18.604C47.0604 19 46.2444 19.198 45.3324 19.198ZM45.3324 16.696C45.7284 16.696 46.0764 16.612 46.3764 16.444C46.6764 16.264 46.9044 16.018 47.0604 15.706C47.2284 15.382 47.3124 15.016 47.3124 14.608C47.3124 14.2 47.2284 13.846 47.0604 13.546C46.8924 13.234 46.6584 12.994 46.3584 12.826C46.0704 12.646 45.7284 12.556 45.3324 12.556C44.9484 12.556 44.6064 12.646 44.3064 12.826C44.0064 12.994 43.7724 13.234 43.6044 13.546C43.4364 13.858 43.3524 14.218 43.3524 14.626C43.3524 15.022 43.4364 15.382 43.6044 15.706C43.7724 16.018 44.0064 16.264 44.3064 16.444C44.6064 16.612 44.9484 16.696 45.3324 16.696ZM53.4578 19L50.4338 10.252H53.1338L55.0058 16.606L54.2138 16.624L56.2838 10.252H58.5158L60.6038 16.624L59.7938 16.606L61.6838 10.252H64.3838L61.3598 19H59.1098L57.0758 12.952H57.7598L55.6898 19H53.4578ZM70.1183 19V6.634H72.8723V19H70.1183ZM68.1383 12.592V10.252H74.8523V12.592H68.1383ZM80.102 19.198C79.202 19.198 78.386 19 77.654 18.604C76.934 18.196 76.364 17.644 75.944 16.948C75.524 16.252 75.314 15.472 75.314 14.608C75.314 13.744 75.524 12.97 75.944 12.286C76.364 11.602 76.934 11.062 77.654 10.666C78.374 10.258 79.19 10.054 80.102 10.054C81.014 10.054 81.83 10.252 82.55 10.648C83.27 11.044 83.84 11.59 84.26 12.286C84.68 12.97 84.89 13.744 84.89 14.608C84.89 15.472 84.68 16.252 84.26 16.948C83.84 17.644 83.27 18.196 82.55 18.604C81.83 19 81.014 19.198 80.102 19.198ZM80.102 16.696C80.498 16.696 80.846 16.612 81.146 16.444C81.446 16.264 81.674 16.018 81.83 15.706C81.998 15.382 82.082 15.016 82.082 14.608C82.082 14.2 81.998 13.846 81.83 13.546C81.662 13.234 81.428 12.994 81.128 12.826C80.84 12.646 80.498 12.556 80.102 12.556C79.718 12.556 79.376 12.646 79.076 12.826C78.776 12.994 78.542 13.234 78.374 13.546C78.206 13.858 78.122 14.218 78.122 14.626C78.122 15.022 78.206 15.382 78.374 15.706C78.542 16.018 78.776 16.264 79.076 16.444C79.376 16.612 79.718 16.696 80.102 16.696ZM93.3968 22.924C92.4368 22.924 91.5908 22.756 90.8588 22.42C90.1388 22.096 89.5688 21.634 89.1488 21.034L90.8408 19.342C91.1528 19.714 91.5008 19.996 91.8848 20.188C92.2808 20.38 92.7548 20.476 93.3068 20.476C93.9908 20.476 94.5248 20.308 94.9088 19.972C95.3048 19.636 95.5028 19.162 95.5028 18.55V16.318L95.9708 14.41L95.5568 12.502V10.252H98.2568V18.478C98.2568 19.378 98.0468 20.158 97.6268 20.818C97.2068 21.478 96.6308 21.994 95.8988 22.366C95.1668 22.738 94.3328 22.924 93.3968 22.924ZM93.2708 18.73C92.4668 18.73 91.7528 18.538 91.1288 18.154C90.5048 17.77 90.0128 17.248 89.6528 16.588C89.2928 15.928 89.1128 15.196 89.1128 14.392C89.1128 13.576 89.2928 12.844 89.6528 12.196C90.0128 11.536 90.5048 11.02 91.1288 10.648C91.7528 10.264 92.4668 10.072 93.2708 10.072C93.8708 10.072 94.4048 10.186 94.8728 10.414C95.3528 10.63 95.7368 10.942 96.0248 11.35C96.3248 11.746 96.4928 12.208 96.5288 12.736V16.066C96.4928 16.582 96.3248 17.044 96.0248 17.452C95.7368 17.848 95.3528 18.16 94.8728 18.388C94.3928 18.616 93.8588 18.73 93.2708 18.73ZM93.7928 16.282C94.1768 16.282 94.5068 16.198 94.7828 16.03C95.0708 15.862 95.2868 15.64 95.4308 15.364C95.5868 15.076 95.6648 14.752 95.6648 14.392C95.6648 14.032 95.5868 13.708 95.4308 13.42C95.2868 13.132 95.0708 12.904 94.7828 12.736C94.5068 12.568 94.1768 12.484 93.7928 12.484C93.4208 12.484 93.0908 12.568 92.8028 12.736C92.5148 12.904 92.2928 13.132 92.1368 13.42C91.9808 13.708 91.9028 14.032 91.9028 14.392C91.9028 14.728 91.9808 15.046 92.1368 15.346C92.2928 15.634 92.5088 15.862 92.7848 16.03C93.0728 16.198 93.4088 16.282 93.7928 16.282ZM104.089 19.198C103.285 19.198 102.571 19.036 101.947 18.712C101.335 18.376 100.855 17.92 100.507 17.344C100.159 16.756 99.9845 16.084 99.9845 15.328V10.252H102.739V15.292C102.739 15.592 102.787 15.85 102.883 16.066C102.991 16.282 103.147 16.45 103.351 16.57C103.555 16.69 103.801 16.75 104.089 16.75C104.497 16.75 104.821 16.624 105.061 16.372C105.301 16.108 105.421 15.748 105.421 15.292V10.252H108.175V15.31C108.175 16.078 108.001 16.756 107.653 17.344C107.305 17.92 106.825 18.376 106.213 18.712C105.601 19.036 104.893 19.198 104.089 19.198ZM109.904 19V10.252H112.658V19H109.904ZM111.29 9.046C110.858 9.046 110.498 8.902 110.21 8.614C109.934 8.314 109.796 7.954 109.796 7.534C109.796 7.102 109.934 6.742 110.21 6.454C110.498 6.166 110.858 6.022 111.29 6.022C111.722 6.022 112.076 6.166 112.352 6.454C112.628 6.742 112.766 7.102 112.766 7.534C112.766 7.954 112.628 8.314 112.352 8.614C112.076 8.902 111.722 9.046 111.29 9.046ZM118.323 19.18C117.495 19.18 116.757 18.982 116.109 18.586C115.473 18.19 114.969 17.65 114.597 16.966C114.237 16.282 114.057 15.502 114.057 14.626C114.057 13.75 114.237 12.97 114.597 12.286C114.969 11.602 115.473 11.062 116.109 10.666C116.757 10.27 117.495 10.072 118.323 10.072C118.923 10.072 119.463 10.186 119.943 10.414C120.435 10.642 120.837 10.96 121.149 11.368C121.473 11.764 121.653 12.22 121.689 12.736V16.426C121.653 16.942 121.479 17.41 121.167 17.83C120.855 18.238 120.453 18.568 119.961 18.82C119.469 19.06 118.923 19.18 118.323 19.18ZM118.809 16.696C119.205 16.696 119.547 16.612 119.835 16.444C120.123 16.264 120.351 16.018 120.519 15.706C120.687 15.394 120.771 15.034 120.771 14.626C120.771 14.218 120.687 13.864 120.519 13.564C120.363 13.252 120.135 13.006 119.835 12.826C119.547 12.646 119.211 12.556 118.827 12.556C118.443 12.556 118.101 12.646 117.801 12.826C117.513 13.006 117.279 13.252 117.099 13.564C116.931 13.876 116.847 14.23 116.847 14.626C116.847 15.022 116.931 15.376 117.099 15.688C117.267 16 117.501 16.246 117.801 16.426C118.101 16.606 118.437 16.696 118.809 16.696ZM123.363 19H120.663V16.642L121.077 14.518L120.609 12.394V5.932H123.363V19ZM129.622 19.198C128.674 19.198 127.828 19.006 127.084 18.622C126.352 18.226 125.776 17.68 125.356 16.984C124.936 16.288 124.726 15.502 124.726 14.626C124.726 13.75 124.93 12.97 125.338 12.286C125.758 11.59 126.322 11.044 127.03 10.648C127.738 10.252 128.536 10.054 129.424 10.054C130.288 10.054 131.05 10.24 131.71 10.612C132.37 10.984 132.886 11.5 133.258 12.16C133.642 12.82 133.834 13.576 133.834 14.428C133.834 14.584 133.822 14.752 133.798 14.932C133.786 15.1 133.756 15.298 133.708 15.526L126.166 15.544V13.654L132.538 13.636L131.35 14.428C131.338 13.924 131.26 13.51 131.116 13.186C130.972 12.85 130.756 12.598 130.468 12.43C130.192 12.25 129.85 12.16 129.442 12.16C129.01 12.16 128.632 12.262 128.308 12.466C127.996 12.658 127.75 12.934 127.57 13.294C127.402 13.654 127.318 14.092 127.318 14.608C127.318 15.124 127.408 15.568 127.588 15.94C127.78 16.3 128.044 16.582 128.38 16.786C128.728 16.978 129.136 17.074 129.604 17.074C130.036 17.074 130.426 17.002 130.774 16.858C131.122 16.702 131.428 16.474 131.692 16.174L133.204 17.686C132.772 18.19 132.25 18.568 131.638 18.82C131.026 19.072 130.354 19.198 129.622 19.198Z" fill="black"/>
<path d="M27 21.25H134.194V22.15H27V21.25Z" fill="black"/>
</svg>
