<svg width="32" height="32" viewBox="0 0 32 32" fill="none" xmlns="http://www.w3.org/2000/svg">
<path d="M25.2411 7.52194C23.5415 6.74207 21.7189 6.1675 19.8132 5.83842C19.7785 5.83207 19.7439 5.84794 19.726 5.87968C19.4916 6.29659 19.2319 6.84047 19.0501 7.26797C17.0005 6.96111 14.9613 6.96111 12.9537 7.26797C12.7718 6.83097 12.5028 6.29659 12.2673 5.87968C12.2494 5.849 12.2148 5.83312 12.1801 5.83842C10.2755 6.16645 8.45286 6.74102 6.75217 7.52194C6.73745 7.52829 6.72483 7.53888 6.71645 7.55262C3.25934 12.7175 2.3123 17.7554 2.77689 22.7308C2.77899 22.7551 2.79265 22.7784 2.81157 22.7932C5.09247 24.4683 7.30192 25.4852 9.47033 26.1592C9.50503 26.1698 9.5418 26.1571 9.56389 26.1285C10.0768 25.428 10.5341 24.6894 10.9261 23.9127C10.9492 23.8672 10.9272 23.8133 10.8799 23.7953C10.1546 23.5202 9.46402 23.1847 8.79972 22.8038C8.74717 22.7731 8.74297 22.698 8.7913 22.662C8.9311 22.5572 9.07093 22.4482 9.20441 22.3382C9.22856 22.3181 9.26222 22.3139 9.29061 22.3266C13.6548 24.3191 18.3795 24.3191 22.6922 22.3266C22.7206 22.3128 22.7542 22.3171 22.7794 22.3371C22.913 22.4472 23.0527 22.5572 23.1936 22.662C23.2419 22.698 23.2388 22.7731 23.1862 22.8038C22.5219 23.1921 21.8313 23.5202 21.105 23.7942C21.0577 23.8122 21.0367 23.8672 21.0598 23.9127C21.4603 24.6884 21.9175 25.4269 22.421 26.1275C22.442 26.1571 22.4799 26.1698 22.5146 26.1592C24.6935 25.4852 26.9029 24.4683 29.1838 22.7932C29.2038 22.7784 29.2164 22.7562 29.2185 22.7318C29.7745 16.9797 28.2872 11.9831 25.2758 7.55368C25.2684 7.53888 25.2559 7.52829 25.2411 7.52194ZM11.5778 19.7013C10.2639 19.7013 9.18128 18.495 9.18128 17.0136C9.18128 15.5322 10.2429 14.3259 11.5778 14.3259C12.9232 14.3259 13.9954 15.5427 13.9743 17.0136C13.9743 18.495 12.9127 19.7013 11.5778 19.7013ZM20.4386 19.7013C19.1247 19.7013 18.0421 18.495 18.0421 17.0136C18.0421 15.5322 19.1037 14.3259 20.4386 14.3259C21.784 14.3259 22.8562 15.5427 22.8352 17.0136C22.8352 18.495 21.784 19.7013 20.4386 19.7013Z" fill="white"/>
</svg>
