<svg width="82" height="82" viewBox="0 0 82 82" fill="none" xmlns="http://www.w3.org/2000/svg">
<path d="M40.6938 65.5223C32.419 65.5278 24.6862 61.4065 20.0776 54.5341C15.4693 47.662 14.5914 38.9435 17.737 31.2908C20.8834 23.6374 27.6392 18.0572 35.748 16.4133C43.8581 14.7693 52.2525 17.2777 58.1317 23.1016C64.0098 28.9254 66.5964 37.2966 65.0281 45.4212C63.4599 53.5458 57.9431 60.3531 50.3197 63.5697C47.2742 64.8596 44.0001 65.5238 40.6927 65.5213L40.6938 65.5223ZM40.6938 18.4904V18.491C34.8022 18.4886 29.1506 20.8272 24.9831 24.9925C20.8155 29.1576 18.4739 34.8075 18.4732 40.7C18.4726 46.5915 20.8126 52.2425 24.9789 56.4091C29.1447 60.5754 34.7957 62.9154 40.688 62.9148C46.5801 62.9141 52.2299 60.5725 56.3955 56.4048C60.5606 52.2378 62.8993 46.5862 62.8969 40.6942C62.8902 34.8075 60.5492 29.1645 56.3864 25.0024C52.2243 20.8396 46.5812 18.4985 40.6945 18.4918L40.6938 18.4904Z" fill="black"/>
<path d="M48.2029 81.3625H33.1856C32.4604 81.3625 31.8725 80.7753 31.8725 80.0501V74.0291C28.8891 73.2514 26.0249 72.0738 23.3572 70.5282L19.1041 74.7813V74.7819C18.8575 75.0304 18.5223 75.1702 18.1719 75.1702C17.8221 75.1702 17.4864 75.0304 17.2404 74.7819L6.63302 64.1483C6.38456 63.9023 6.24476 63.5665 6.24476 63.2167C6.24476 62.8663 6.38455 62.5312 6.63302 62.2846L10.8861 58.0315H10.8867C9.34288 55.3594 8.16531 52.4928 7.38579 49.507H1.31236C0.587139 49.507 -0.00012207 48.9197 -0.00012207 48.1945V33.1943C-0.00012207 32.4691 0.587139 31.8818 1.31236 31.8818H7.33328C8.11284 28.8961 9.29035 26.0294 10.8342 23.3573L6.58112 19.1042H6.58051C6.33206 18.8576 6.19225 18.5224 6.19225 18.1721C6.19225 17.8223 6.33205 17.4865 6.58051 17.2405L17.2404 6.63314C17.4864 6.38469 17.8222 6.24488 18.1719 6.24488C18.5223 6.24488 18.8575 6.38468 19.1041 6.63314L23.3572 10.8862V10.8869C26.0249 9.34117 28.8891 8.16355 31.8725 7.38591V1.31248C31.8725 0.587261 32.4604 0 33.1856 0H48.2029C48.9282 0 49.516 0.587261 49.516 1.31248V7.3334C52.4994 8.11114 55.3636 9.28875 58.0313 10.8343L62.2844 6.58124V6.58063C62.531 6.33218 62.8662 6.19237 63.2166 6.19237C63.5664 6.19237 63.9021 6.33217 64.1481 6.58063L74.7555 17.2405C75.004 17.4865 75.1438 17.8223 75.1438 18.1721C75.1438 18.5225 75.004 18.8576 74.7555 19.1042L70.5024 23.3573H70.5018C72.0456 26.0294 73.2232 28.896 74.0027 31.8818H80.0761C80.8014 31.8818 81.3886 32.4691 81.3886 33.1943V48.1945C81.3886 48.9197 80.8014 49.507 80.0761 49.507H74.029C73.2494 52.4927 72.0719 55.3594 70.528 58.0315L74.7812 62.2846H74.7818C75.0302 62.5312 75.17 62.8663 75.17 63.2167C75.17 63.5665 75.0302 63.9023 74.7818 64.1483L64.1481 74.7557C63.9021 75.0041 63.5664 75.1439 63.2166 75.1439C62.8662 75.1439 62.531 75.0041 62.2844 74.7557L58.0313 70.5025V70.5019C55.3636 72.0476 52.4994 73.2252 49.516 74.0029V80.0763C49.5014 80.7912 48.9178 81.3632 48.2029 81.3626V81.3625ZM34.4982 78.7369L46.8905 78.7375V72.9962C46.8942 72.3876 47.3136 71.8595 47.9057 71.7185C51.3145 70.9334 54.5677 69.585 57.5321 67.7279C58.0504 67.405 58.7231 67.485 59.1516 67.9202L63.2124 71.9725L71.9639 63.221L67.9202 59.1602C67.485 58.7323 67.405 58.0596 67.7279 57.5413C69.5812 54.5752 70.9298 51.322 71.7185 47.9143C71.8601 47.3173 72.3912 46.8942 73.0053 46.8906H78.7376V34.5068H73.0053C72.3912 34.5031 71.8601 34.0801 71.7185 33.483C70.9298 30.0754 69.5812 26.8229 67.7279 23.8566C67.405 23.3384 67.485 22.6656 67.9202 22.2371L71.9725 18.1848L63.221 9.43328L59.1602 13.4684C58.7323 13.9036 58.0596 13.9836 57.5414 13.6607C54.5769 11.8036 51.3232 10.4551 47.9143 9.67012C47.3222 9.5291 46.9028 9.00106 46.8991 8.39242V2.65108H34.4982V8.39242C34.4945 9.00104 34.0751 9.52909 33.483 9.67012C30.0742 10.4552 26.821 11.8036 23.8565 13.6607C23.3383 13.9836 22.6655 13.9036 22.237 13.4684L18.1763 9.41609L9.42475 18.1677L13.477 22.2199C13.9123 22.6479 13.9923 23.3206 13.6693 23.8388C11.8167 26.805 10.4681 30.0582 9.67878 33.4652C9.53776 34.0629 9.00605 34.4859 8.39253 34.4896H2.65119V46.882H8.38347C8.99759 46.8856 9.52869 47.3087 9.67032 47.9057C10.459 51.3133 11.8076 54.5658 13.6609 57.5321C13.9838 58.0504 13.9038 58.7231 13.4686 59.1516L9.41629 63.2039L18.1679 71.9555L22.2286 67.9032C22.6565 67.4679 23.3292 67.3879 23.8475 67.7103C26.8119 69.5673 30.0656 70.9158 33.4745 71.7008C34.0667 71.8425 34.486 72.3699 34.4897 72.9791L34.4982 78.7369Z" fill="black"/>
<path d="M31.1108 49.1131C30.1475 49.1131 29.2239 48.7304 28.5425 48.0497C27.8613 47.3684 27.4791 46.4447 27.4791 45.4814C27.4791 44.5181 27.8613 43.5945 28.5425 42.9132C29.2238 42.2318 30.1475 41.8491 31.1108 41.8491C32.0741 41.8491 32.9977 42.2319 33.6791 42.9132C34.3605 43.5944 34.7431 44.5181 34.7431 45.4814C34.7431 46.4447 34.3604 47.3683 33.6791 48.0497C32.9978 48.7304 32.0741 49.1131 31.1108 49.1131ZM31.1108 44.4834C30.703 44.484 30.3355 44.73 30.1805 45.1073C30.0248 45.4839 30.1127 45.918 30.4021 46.2049C30.692 46.4918 31.1261 46.576 31.5021 46.4173C31.8782 46.2586 32.1211 45.8893 32.1175 45.4815C32.1175 45.2153 32.0112 44.9602 31.822 44.7727C31.6328 44.5853 31.377 44.4815 31.1108 44.4834L31.1108 44.4834Z" fill="black"/>
<path d="M50.3205 39.5301C49.356 39.5326 48.4305 39.1517 47.7474 38.471C47.0643 37.7897 46.6803 36.8656 46.6797 35.9016C46.6791 34.9371 47.0612 34.0122 47.7431 33.3304C48.425 32.6485 49.3504 32.2657 50.3144 32.2664C51.2789 32.2676 52.2031 32.6516 52.8837 33.3347C53.5644 34.0172 53.9459 34.9432 53.9435 35.9072C53.941 36.8674 53.5583 37.788 52.8795 38.4668C52.2006 39.1457 51.2807 39.5284 50.3204 39.5302L50.3205 39.5301ZM50.3205 34.9004V34.901C49.9127 34.8974 49.5428 35.1403 49.3841 35.5158C49.226 35.8918 49.3096 36.3258 49.5965 36.6158C49.884 36.9052 50.3175 36.9931 50.6947 36.838C51.072 36.6824 51.318 36.3148 51.318 35.9071C51.318 35.3546 50.873 34.9053 50.3205 34.901V34.9004Z" fill="black"/>
<path d="M40.6937 44.3169C39.7328 44.3169 38.811 43.9353 38.1315 43.2559C37.4521 42.5764 37.0705 41.6547 37.0705 40.6937C37.0705 39.7328 37.4521 38.811 38.1315 38.1315C38.811 37.4521 39.7328 37.0706 40.6937 37.0706C41.6547 37.0706 42.5764 37.4521 43.2559 38.1315C43.9353 38.811 44.3169 39.7328 44.3169 40.6937C44.3169 41.6547 43.9353 42.5764 43.2559 43.2559C42.5764 43.9353 41.6547 44.3169 40.6937 44.3169ZM40.6937 39.6964C40.2902 39.6964 39.9263 39.9393 39.7719 40.3123C39.6175 40.6847 39.7029 41.1139 39.988 41.3995C40.2737 41.6846 40.7029 41.7701 41.0752 41.6157C41.4482 41.4612 41.6912 41.0974 41.6912 40.6939C41.6912 40.4295 41.5862 40.1756 41.3994 39.9882C41.212 39.8014 40.958 39.6964 40.6937 39.6964Z" fill="black"/>
<path d="M40.694 39.6972C39.9687 39.6972 39.3815 39.1093 39.3815 38.3841V27.3751C39.3815 26.6499 39.9687 26.062 40.694 26.062C41.4192 26.062 42.0065 26.6499 42.0065 27.3751V38.3841C42.0065 39.1093 41.4192 39.6972 40.694 39.6972Z" fill="black"/>
<path d="M50.3204 34.901C49.5952 34.901 49.0073 34.3132 49.0073 33.5879V27.374V27.3746C49.0073 26.6494 49.5952 26.0615 50.3204 26.0615C51.045 26.0615 51.6329 26.6494 51.6329 27.3746V33.5885V33.5879C51.6329 34.3132 51.045 34.901 50.3204 34.901Z" fill="black"/>
<path d="M31.1107 55.3266C30.3855 55.3266 29.7982 54.7387 29.7982 54.0135V47.7995V47.8002C29.7982 47.0749 30.3855 46.4871 31.1107 46.4871C31.8359 46.4871 32.4232 47.0749 32.4232 47.8002V54.0141V54.0135C32.4232 54.7387 31.8359 55.3266 31.1107 55.3266Z" fill="black"/>
<path d="M40.694 55.3266C39.9687 55.3266 39.3815 54.7387 39.3815 54.0135V43.0045C39.3815 42.2793 39.9687 41.6914 40.694 41.6914C41.4192 41.6914 42.0065 42.2793 42.0065 43.0045V54.0135C42.0065 54.7387 41.4192 55.3266 40.694 55.3266Z" fill="black"/>
<path d="M50.3204 55.3266C49.5952 55.3266 49.0073 54.7388 49.0073 54.0135V38.2607V38.2613C49.0073 37.5361 49.5952 36.9482 50.3204 36.9482C51.045 36.9482 51.6329 37.5361 51.6329 38.2613V54.0141V54.0135C51.6329 54.7388 51.045 55.3266 50.3204 55.3266Z" fill="black"/>
<path d="M31.1107 44.484C30.3855 44.484 29.7982 43.8967 29.7982 43.1715V27.4187C29.7982 26.6941 30.3855 26.1062 31.1107 26.1062C31.8359 26.1062 32.4232 26.6941 32.4232 27.4187V43.1715C32.4232 43.8967 31.8359 44.484 31.1107 44.484Z" fill="black"/>
</svg>
