<svg width="522" height="259" viewBox="0 0 522 259" fill="none" xmlns="http://www.w3.org/2000/svg">
<g opacity="0.4" clip-path="url(#clip0_557_573)">
<path d="M391.98 0C343.007 0 310.523 20.5822 276.854 51.4838L261.465 65.6005L247.614 52.0343C211.393 16.5589 174.268 0.028218 130.655 0.028218C54.9533 0.028218 0 54.7588 0 130.156C0 204.834 55.0097 259.028 130.655 259.028C181.786 259.028 215.864 233.886 246.317 208.137L261.733 193.131L276.431 207.248L277.136 207.911C306.616 233.802 339.777 259.085 391.923 259.085C467.258 259.085 521.944 204.89 521.944 130.213C522 53.5166 468.542 0 391.98 0ZM341.427 118.792C358.353 101.852 369.778 95.6268 383.742 95.6268C398.27 95.6268 422.658 100.102 422.658 130.128C422.658 160.154 395.435 163.387 383.742 163.387C369.891 163.387 358.353 157.19 341.032 140.476L330.016 129.945L341.427 118.792ZM181.236 140.236C165.297 154.96 149.852 163.415 138.921 163.415C126.833 163.415 98.7354 160.169 98.7354 130.156C98.7354 100.144 123.885 95.6268 138.921 95.6268C155.621 95.6268 167.512 106.356 190.714 128.702L192.125 130.114L181.236 140.236Z" fill="url(#paint0_linear_557_573)"/>
</g>
<defs>
<linearGradient id="paint0_linear_557_573" x1="0" y1="129.493" x2="522" y2="129.493" gradientUnits="userSpaceOnUse">
<stop stop-color="white"/>
<stop offset="1" stop-color="#00FFB3"/>
</linearGradient>
<clipPath id="clip0_557_573">
<rect width="522" height="259" fill="white"/>
</clipPath>
</defs>
</svg>
