<svg width="32" height="32" viewBox="0 0 32 32" fill="none" xmlns="http://www.w3.org/2000/svg">
<path d="M23.12 7.27999C22.8036 7.27999 22.4942 7.37383 22.2311 7.54964C21.968 7.72545 21.7629 7.97533 21.6418 8.26769C21.5207 8.56006 21.489 8.88176 21.5508 9.19213C21.6125 9.5025 21.7649 9.78759 21.9886 10.0114C22.2124 10.2351 22.4975 10.3875 22.8079 10.4492C23.1182 10.511 23.4399 10.4793 23.7323 10.3582C24.0247 10.2371 24.2746 10.032 24.4504 9.7689C24.6262 9.50578 24.72 9.19644 24.72 8.87999C24.72 8.45564 24.5514 8.04868 24.2514 7.74862C23.9513 7.44856 23.5444 7.27999 23.12 7.27999V7.27999ZM29.2533 10.5067C29.2274 9.40038 29.0202 8.30586 28.64 7.26665C28.301 6.3775 27.7733 5.57236 27.0933 4.90666C26.4331 4.22322 25.6261 3.69889 24.7333 3.37332C23.6969 2.98154 22.6011 2.7696 21.4933 2.74666C20.08 2.66666 19.6267 2.66666 16 2.66666C12.3733 2.66666 11.92 2.66666 10.5067 2.74666C9.39889 2.7696 8.30314 2.98154 7.26668 3.37332C6.37559 3.70219 5.56926 4.22607 4.90669 4.90666C4.22325 5.56689 3.69892 6.37391 3.37335 7.26665C2.98157 8.30311 2.76963 9.39886 2.74669 10.5067C2.66669 11.92 2.66669 12.3733 2.66669 16C2.66669 19.6266 2.66669 20.08 2.74669 21.4933C2.76963 22.6011 2.98157 23.6969 3.37335 24.7333C3.69892 25.6261 4.22325 26.4331 4.90669 27.0933C5.56926 27.7739 6.37559 28.2978 7.26668 28.6266C8.30314 29.0184 9.39889 29.2304 10.5067 29.2533C11.92 29.3333 12.3733 29.3333 16 29.3333C19.6267 29.3333 20.08 29.3333 21.4933 29.2533C22.6011 29.2304 23.6969 29.0184 24.7333 28.6266C25.6261 28.3011 26.4331 27.7767 27.0933 27.0933C27.7763 26.4301 28.3045 25.6242 28.64 24.7333C29.0202 23.6941 29.2274 22.5996 29.2533 21.4933C29.2533 20.08 29.3333 19.6266 29.3333 16C29.3333 12.3733 29.3333 11.92 29.2533 10.5067V10.5067ZM26.8533 21.3333C26.8436 22.1797 26.6903 23.0183 26.4 23.8133C26.1871 24.3936 25.8452 24.9179 25.4 25.3466C24.9675 25.7873 24.4443 26.1286 23.8667 26.3466C23.0716 26.637 22.233 26.7903 21.3867 26.8C20.0533 26.8666 19.56 26.88 16.0533 26.88C12.5467 26.88 12.0533 26.88 10.72 26.8C9.8412 26.8164 8.96614 26.6811 8.13335 26.4C7.58106 26.1707 7.08183 25.8304 6.66669 25.4C6.22414 24.9716 5.88648 24.4469 5.68002 23.8666C5.35449 23.0602 5.17394 22.2026 5.14669 21.3333C5.14669 20 5.06669 19.5066 5.06669 16C5.06669 12.4933 5.06669 12 5.14669 10.6667C5.15266 9.80139 5.31062 8.94391 5.61335 8.13332C5.84808 7.57054 6.20837 7.06887 6.66669 6.66665C7.07177 6.20821 7.5724 5.84412 8.13335 5.59999C8.94609 5.30671 9.80268 5.15343 10.6667 5.14666C12 5.14666 12.4933 5.06666 16 5.06666C19.5067 5.06666 20 5.06666 21.3333 5.14666C22.1797 5.15636 23.0183 5.30965 23.8133 5.59999C24.4193 5.82486 24.9631 6.19045 25.4 6.66665C25.8369 7.07623 26.1784 7.57696 26.4 8.13332C26.6963 8.94523 26.8497 9.80236 26.8533 10.6667C26.92 12 26.9333 12.4933 26.9333 16C26.9333 19.5066 26.92 20 26.8533 21.3333ZM16 9.15999C14.6478 9.16262 13.3266 9.56602 12.2036 10.3192C11.0805 11.0724 10.2059 12.1416 9.6902 13.3917C9.17454 14.6417 9.04098 16.0166 9.30641 17.3426C9.57184 18.6685 10.2243 19.886 11.1815 20.8413C12.1386 21.7965 13.3574 22.4467 14.6838 22.7095C16.0103 22.9724 17.3849 22.8361 18.634 22.318C19.883 21.7999 20.9505 20.9232 21.7015 19.7987C22.4525 18.6742 22.8533 17.3522 22.8533 16C22.8551 15.1001 22.679 14.2088 22.335 13.3773C21.991 12.5457 21.4861 11.7904 20.8492 11.1547C20.2123 10.519 19.4559 10.0156 18.6237 9.67323C17.7915 9.33089 16.8999 9.15647 16 9.15999V9.15999ZM16 20.44C15.1219 20.44 14.2634 20.1796 13.5333 19.6917C12.8031 19.2038 12.234 18.5104 11.898 17.6991C11.5619 16.8878 11.474 15.9951 11.6453 15.1338C11.8166 14.2725 12.2395 13.4814 12.8605 12.8604C13.4814 12.2395 14.2725 11.8166 15.1338 11.6453C15.9951 11.474 16.8878 11.5619 17.6991 11.898C18.5104 12.234 19.2039 12.8031 19.6917 13.5333C20.1796 14.2634 20.44 15.1218 20.44 16C20.44 16.5831 20.3252 17.1604 20.102 17.6991C19.8789 18.2378 19.5519 18.7272 19.1396 19.1395C18.7273 19.5518 18.2378 19.8789 17.6991 20.102C17.1604 20.3251 16.5831 20.44 16 20.44V20.44Z" fill="white"/>
</svg>
