<svg width="495" height="193" viewBox="0 0 495 193" fill="none" xmlns="http://www.w3.org/2000/svg">
<path d="M118.786 149.246V100.432H70.4754L86.0879 116.197L42.7197 159.991C41.1805 161.542 39.0949 162.413 36.9204 162.413C34.746 162.413 32.6603 161.542 31.1212 159.991L0.0574951 128.623V163.189L23.1334 186.481C24.9438 188.31 27.0931 189.76 29.4587 190.75C31.8244 191.74 34.3598 192.249 36.9204 192.249C39.481 192.249 42.0166 191.74 44.3822 190.75C46.7478 189.76 48.8971 188.31 50.7075 186.481L103.233 133.44L118.786 149.246Z" fill="black"/>
<path d="M118.786 99.24V50.4253H70.4754L86.0879 66.2012L42.7197 109.995C41.9589 110.765 41.0551 111.377 40.06 111.794C39.0649 112.211 37.9979 112.426 36.9204 112.426C35.843 112.426 34.7761 112.211 33.781 111.794C32.7858 111.377 31.882 110.765 31.1212 109.995L0.0574951 78.6264V113.193L23.0931 136.475C24.9034 138.303 27.0529 139.754 29.4185 140.744C31.7841 141.733 34.3196 142.243 36.8802 142.243C39.4407 142.243 41.9762 141.733 44.3418 140.744C46.7074 139.754 48.8568 138.303 50.6671 136.475L103.193 83.515L118.786 99.24Z" fill="black"/>
<path d="M118.786 49.2341V0.419434H70.4754L86.0879 16.1852L42.7197 59.9788C41.9589 60.7493 41.0551 61.3606 40.06 61.7777C39.0649 62.1948 37.9979 62.4095 36.9204 62.4095C35.843 62.4095 34.7761 62.1948 33.781 61.7777C32.7858 61.3606 31.882 60.7493 31.1212 59.9788L0.0574951 28.6103V63.1768L23.1334 86.4689C24.9438 88.2975 27.0931 89.748 29.4587 90.7377C31.8244 91.7273 34.3598 92.2367 36.9204 92.2367C39.481 92.2367 42.0166 91.7273 44.3822 90.7377C46.7478 89.748 48.8971 88.2975 50.7075 86.4689L103.233 33.4277L118.786 49.2341Z" fill="black"/>
<path d="M182.739 50.5781V64.9995H163.253V128.093H147.187V50.5781H182.739Z" fill="black"/>
<path d="M224.342 50.4663C237.635 50.4663 247.317 56.8928 250.928 64.4803H251.361C251.136 62.0055 251.038 59.5205 251.069 57.0354V52.8088H265.37V128.093H251.069V122.695C251.069 119.334 251.21 117.155 251.361 115.108H250.907C247.004 124.009 236.788 130.385 223.737 130.385C201.195 130.385 186.168 113.611 186.168 90.4102C186.168 67.2098 202.083 50.4663 224.342 50.4663ZM250.494 90.3084C250.494 75.1334 240.408 64.3275 226.218 64.3275C212.35 64.3275 201.942 75.1334 201.942 90.3084C201.942 105.331 212.35 116.279 226.218 116.279C240.378 116.279 250.494 105.331 250.494 90.3084Z" fill="black"/>
<path d="M290.04 147.79H328.91V127.36C328.91 124.447 329.051 122.115 329.192 120.23H328.617C327.175 123.734 321.678 129.132 309.687 129.132C293.65 129.132 282.234 116.442 282.234 99.2197V52.8086H297.836V99.0568C297.836 108.539 304.341 114.965 313.449 114.965C322.556 114.965 328.91 108.539 328.91 99.0568V52.8086H344.512V161.651H290.05L290.04 147.79Z" fill="black"/>
<path d="M356.383 52.8086H416.06L378.743 114.232H413.851V128.093H354.033L391.895 66.517H356.343L356.383 52.8086Z" fill="black"/>
<path d="M458.601 130.425C435.475 130.425 418.864 113.356 418.864 90.451C418.864 67.2505 435.475 50.4663 458.308 50.4663C480.124 50.4663 495.01 67.3931 495.01 90.451C495.022 92.3576 494.877 94.2618 494.576 96.1441H435.192C437.209 108.539 446.024 116.279 458.742 116.279C467.991 116.279 474.637 112.918 479.982 106.094L489.06 115.576C481.717 125.466 471.309 130.425 458.601 130.425ZM435.192 84.7578H479.569C478.409 72.7909 470.038 64.3275 458.036 64.3275C445.742 64.3275 437.209 72.3122 435.192 84.7578Z" fill="black"/>
</svg>
