<svg width="200" height="77" viewBox="0 0 200 77" fill="none" xmlns="http://www.w3.org/2000/svg">
<path d="M47.9969 59.727V40.1367H28.4648L34.7731 46.4638L17.25 64.0391C16.6288 64.6613 15.7867 65.0108 14.9088 65.0108C14.0309 65.0108 13.1888 64.6613 12.5676 64.0391L0.0161743 51.4503V65.3184L9.33603 74.67C10.0675 75.4039 10.936 75.986 11.8918 76.3832C12.8477 76.7803 13.8721 76.9847 14.9067 76.9847C15.9414 76.9847 16.9658 76.7803 17.9217 76.3832C18.8775 75.986 19.746 75.4039 20.4775 74.67L41.7049 53.3836L47.9969 59.727Z" fill="url(#paint0_linear_517_885)"/>
<path d="M47.9969 39.6586V20.0684H28.4648L34.7731 26.3954L17.25 43.9707C16.6288 44.5929 15.7867 44.9424 14.9088 44.9424C14.0309 44.9424 13.1888 44.5929 12.5676 43.9707L0.0161743 31.3819V45.2541L9.33603 54.6017C10.0675 55.3355 10.936 55.9176 11.8918 56.3148C12.8477 56.712 13.8721 56.9164 14.9067 56.9164C15.9414 56.9164 16.9658 56.712 17.9217 56.3148C18.8775 55.9176 19.746 55.3355 20.4775 54.6017L41.7049 33.3152L47.9969 39.6586Z" fill="url(#paint1_linear_517_885)"/>
<path d="M47.9971 19.5903V0H28.4649L34.7732 6.32709L17.2501 23.9023C16.943 24.2114 16.5782 24.4566 16.1764 24.624C15.7747 24.7913 15.3439 24.8775 14.9089 24.8775C14.4739 24.8775 14.0431 24.7913 13.6414 24.624C13.2396 24.4566 12.8748 24.2114 12.5677 23.9023L0.0162964 11.3135V25.1857L9.33615 34.5333C10.0676 35.2672 10.9361 35.8493 11.8919 36.2465C12.8478 36.6436 13.8723 36.848 14.9069 36.848C15.9415 36.848 16.966 36.6436 17.9218 36.2465C18.8776 35.8493 19.7461 35.2672 20.4776 34.5333L41.705 13.2468L47.9971 19.5903Z" fill="url(#paint2_linear_517_885)"/>
<path d="M73.8253 20.1299V25.9175H65.9522V51.2299H59.4604V20.1299H73.8253Z" fill="white"/>
<path d="M90.6313 20.085C96.0023 20.085 99.9144 22.664 101.373 25.709H101.549C101.46 24.7157 101.42 23.7185 101.43 22.7213V21.0209H107.217V51.2299H101.434V49.0637C101.434 47.7149 101.496 46.8361 101.553 46.0187H101.377C99.8003 49.5909 95.6722 52.1496 90.4031 52.1496C81.2951 52.1496 75.2231 45.4178 75.2231 36.107C75.2231 26.7963 81.6659 20.085 90.6313 20.085ZM101.198 36.0703C101.198 29.9802 97.123 25.6477 91.3892 25.6477C85.7859 25.6477 81.5804 29.9802 81.5804 36.0703C81.5804 42.1603 85.7859 46.4928 91.3892 46.4928C97.1148 46.4928 101.202 42.1031 101.202 36.0703H101.198Z" fill="white"/>
<path d="M117.181 59.1429H132.886V50.9439C132.886 49.7749 132.943 48.8348 133 48.0828H132.768C132.185 49.4888 129.965 51.655 125.119 51.655C118.64 51.655 114.027 46.5623 114.027 39.6507V21.021H120.331V39.5854C120.331 43.3906 122.959 45.9656 126.639 45.9656C130.319 45.9656 132.886 43.3906 132.886 39.5854V21.021H139.191V64.718H117.185L117.181 59.1429Z" fill="white"/>
<path d="M143.987 21.021H168.1L153.022 45.6754H167.244V51.23H143.074L158.372 26.5184H144.008L143.987 21.021Z" fill="white"/>
<path d="M185.289 52.1741C175.949 52.1741 169.233 45.3238 169.233 36.1316C169.233 26.8208 175.949 20.085 185.171 20.085C193.985 20.085 200 26.878 200 36.1316C200.005 36.8954 199.946 37.6583 199.825 38.4123H175.83C176.645 43.3906 180.207 46.4928 185.346 46.4928C189.083 46.4928 191.768 45.1481 193.928 42.4055L197.596 46.2108C194.629 50.1836 190.428 52.1741 185.289 52.1741ZM175.83 33.8468H193.761C193.296 29.0442 189.91 25.6477 185.065 25.6477C180.093 25.6477 176.649 28.8685 175.83 33.8468Z" fill="white"/>
<defs>
<linearGradient id="paint0_linear_517_885" x1="-0.000126266" y1="58.5703" x2="47.9969" y2="58.5703" gradientUnits="userSpaceOnUse">
<stop stop-color="#00FFB3"/>
<stop offset="1" stop-color="white"/>
</linearGradient>
<linearGradient id="paint1_linear_517_885" x1="-0.000126266" y1="38.5019" x2="47.9969" y2="38.5019" gradientUnits="userSpaceOnUse">
<stop stop-color="#00FFB3"/>
<stop offset="0.01" stop-color="#09FFB6"/>
<stop offset="0.05" stop-color="#37FFC3"/>
<stop offset="0.09" stop-color="#62FFD0"/>
<stop offset="0.14" stop-color="#88FFDC"/>
<stop offset="0.2" stop-color="#A8FFE5"/>
<stop offset="0.25" stop-color="#C4FFED"/>
<stop offset="0.32" stop-color="#DAFFF4"/>
<stop offset="0.4" stop-color="#EBFFF9"/>
<stop offset="0.49" stop-color="#F6FFFC"/>
<stop offset="0.63" stop-color="#FDFFFE"/>
<stop offset="1" stop-color="white"/>
</linearGradient>
<linearGradient id="paint2_linear_517_885" x1="-4.19534e-06" y1="18.4336" x2="47.9971" y2="18.4336" gradientUnits="userSpaceOnUse">
<stop stop-color="#00FFB3"/>
<stop offset="1" stop-color="white"/>
</linearGradient>
</defs>
</svg>
