<svg width="82" height="74" viewBox="0 0 82 74" fill="none" xmlns="http://www.w3.org/2000/svg">
<path d="M53.8959 55.0211C53.0633 55.0211 52.3885 55.6959 52.3885 56.5285V70.3554H3.02843V5.22714H52.3745V16.7183C52.3345 17.1446 52.4758 17.5685 52.7638 17.8856C53.0524 18.2021 53.4605 18.3828 53.8892 18.3828C54.3179 18.3828 54.726 18.2021 55.0146 17.8856C55.3026 17.5685 55.4439 17.1446 55.4039 16.7183V3.7197C55.4039 2.88715 54.7284 2.21167 53.8959 2.21167H1.5073C0.674756 2.21167 -0.00012207 2.88717 -0.00012207 3.7197V71.8641C-0.00012207 72.6967 0.674771 73.3715 1.5073 73.3715H53.8959C54.2961 73.3715 54.6793 73.2127 54.9619 72.9301C55.245 72.6469 55.4039 72.2637 55.4039 71.8641V56.5291C55.4039 55.6965 54.7284 55.0217 53.8959 55.0217V55.0211Z" fill="black"/>
<path d="M81.4957 6.23199C81.4156 5.83968 81.1804 5.49707 80.8438 5.28121L73.2236 0.268989C72.8907 0.0403816 72.4808 -0.0475406 72.083 0.0246258C71.6907 0.104666 71.3481 0.339929 71.1322 0.676468L65.5767 9.12502C65.5143 9.20748 65.4639 9.29904 65.4275 9.39667L36.0347 54.0284C35.9717 54.1212 35.9214 54.2218 35.8856 54.3273C35.7031 54.5281 35.5848 54.7791 35.546 55.0471L33.6311 66.4565H33.6305C33.531 67.0544 33.7984 67.6535 34.3096 67.9779C34.8214 68.3138 35.4829 68.3138 35.9942 67.9779L45.502 61.3631C45.5899 61.2988 45.6718 61.226 45.7464 61.146C45.9168 61.0344 46.0641 60.8913 46.1811 60.7252L75.5476 16.0515C75.61 15.9691 75.6603 15.8775 75.6967 15.7799L81.2383 7.372C81.4778 7.04335 81.5706 6.63103 81.4966 6.23142L81.4957 6.23199ZM38.2346 57.2887L42.2009 59.9101L37.2027 63.4009L38.2346 57.2887ZM44.442 57.7641L39.3891 54.4363L67.138 12.3301L72.1909 15.6711L44.442 57.7641ZM73.8348 13.1184L68.7685 9.77737L72.8433 3.62452L77.9096 6.96553L73.8348 13.1184Z" fill="black"/>
<path d="M37.5284 21.3082C38.361 21.3082 39.0365 20.6333 39.0365 19.8001C39.0365 18.9676 38.361 18.2927 37.5284 18.2927H9.3992C8.56666 18.2927 7.89117 18.9676 7.89117 19.8001C7.89117 20.6333 8.56667 21.3082 9.3992 21.3082H37.5284Z" fill="black"/>
<path d="M9.75153 33.764H37.8668C38.6993 33.764 39.3748 33.0885 39.3748 32.256C39.3748 31.4234 38.6993 30.7485 37.8668 30.7485H9.75153C8.91899 30.7485 8.24411 31.4234 8.24411 32.256C8.24411 33.0885 8.919 33.764 9.75153 33.764Z" fill="black"/>
</svg>
