<svg width="88" height="82" viewBox="0 0 88 82" fill="none" xmlns="http://www.w3.org/2000/svg">
<path d="M71.0046 81.3626L64.7416 76.9066L60.3655 73.7856L57.0712 71.4411C52.778 68.3827 48.343 65.2216 43.9873 62.0888C37.8965 66.4563 31.698 70.8746 25.6983 75.1486L21.9655 77.8168C21.7816 77.9487 21.6033 78.0664 21.3779 78.2175L20.9927 78.4825L16.7206 81.3607L19.1011 74.3713C19.5902 72.9341 20.0584 71.5556 20.5315 70.1791L21.804 66.4668C23.6332 61.1302 25.5251 55.6147 27.4131 50.1895C26.0712 49.2792 21.2598 45.9 4.43493 33.9581L-0.00012207 30.8006H11.9512C19.0601 30.8006 26.3962 30.8006 33.6247 30.8198C35.8664 23.976 38.1657 17.0307 40.3868 10.3115L41.9925 5.45666C42.0482 5.28327 42.107 5.12227 42.19 4.88944L42.3442 4.45597L43.9201 0L45.5983 4.41761C45.654 4.56499 45.7023 4.69008 45.7457 4.7972C45.8286 5.01208 45.9017 5.19598 45.9673 5.39725L47.4826 9.97829C49.7367 16.8029 52.0756 23.8492 54.3469 30.81C61.5685 30.7927 68.9026 30.7946 75.9998 30.7946H87.9635L83.8022 33.9156L83.4381 34.1912C83.23 34.3491 83.0653 34.4735 82.8851 34.6005L79.0707 37.2583C73.0022 41.4926 66.7256 45.8706 60.5376 50.1619C62.908 56.9482 65.276 63.8594 67.5685 70.5307L69.3024 75.5695C69.3699 75.767 69.4238 75.9559 69.4863 76.1726C69.5173 76.2803 69.5507 76.4017 69.5941 76.5435L71.0046 81.3626ZM10.8777 34.2696C18.0107 39.3288 28.8718 47.0221 29.6248 47.4866C30.2304 47.8222 30.6899 48.3709 30.9128 49.0266C31.0974 49.6545 31.0652 50.3258 30.8224 50.9339C28.891 56.4822 26.9559 62.1192 25.0834 67.579L23.8108 71.2913L23.3823 72.5434L23.6895 72.3248C29.7703 67.9901 36.0569 63.5118 42.2258 59.0867C43.398 58.2458 44.5838 58.2439 45.7493 59.0867C50.1844 62.2789 54.7096 65.502 59.0877 68.6229L62.382 70.9673L64.5946 72.5433L64.2949 71.6764C61.9733 64.9143 59.5719 57.9113 57.1723 51.0428C56.3964 48.8333 57.8845 47.793 58.3768 47.4462C64.6187 43.1115 70.9628 38.692 77.0938 34.4162L77.3142 34.262H76.007C68.8201 34.262 61.3887 34.262 54.0799 34.2775H54.0675C52.5677 34.2775 51.6178 33.5963 51.1595 32.1969C48.8584 25.1506 46.4905 17.9916 44.2 11.0703L43.9851 10.4616L43.673 11.4028C41.4189 18.21 39.0907 25.2477 36.8204 32.1759C36.361 33.5785 35.3918 34.2894 33.9372 34.2894L33.9285 34.29C26.6048 34.2689 19.1542 34.2689 11.9522 34.2689L10.8777 34.2696Z" fill="black"/>
</svg>
