<svg width="33" height="32" viewBox="0 0 33 32" fill="none" xmlns="http://www.w3.org/2000/svg">
<path d="M29.451 7.73334C28.4488 8.16813 27.3889 8.45555 26.3044 8.58667C27.4486 7.9031 28.306 6.82771 28.7177 5.56C27.6424 6.20009 26.4654 6.65107 25.2377 6.89334C24.4171 6.00343 23.3243 5.41107 22.1308 5.20914C20.9372 5.00721 19.7104 5.20715 18.6427 5.77759C17.5751 6.34803 16.7269 7.25671 16.2313 8.36112C15.7358 9.46553 15.6207 10.7032 15.9044 11.88C13.7303 11.77 11.6036 11.2039 9.66257 10.2185C7.72152 9.23303 6.00949 7.85026 4.6377 6.16C4.15655 7.00023 3.90372 7.95177 3.90436 8.92C3.90266 9.81918 4.12332 10.7048 4.5467 11.4981C4.97009 12.2914 5.58305 12.9676 6.33103 13.4667C5.46166 13.443 4.61088 13.2097 3.85103 12.7867V12.8533C3.85754 14.1132 4.29902 15.3321 5.10078 16.304C5.90254 17.2758 7.01537 17.9409 8.25103 18.1867C7.77537 18.3314 7.28153 18.4077 6.78436 18.4133C6.44021 18.4093 6.09692 18.3781 5.75769 18.32C6.10957 19.4037 6.79052 20.3509 7.70579 21.0295C8.62106 21.7082 9.72513 22.0847 10.8644 22.1067C8.94063 23.6204 6.56554 24.4465 4.1177 24.4533C3.67201 24.4548 3.22668 24.4281 2.78436 24.3733C5.2836 25.987 8.19611 26.8436 11.171 26.84C13.2239 26.8613 15.2605 26.4734 17.1618 25.6988C19.0632 24.9242 20.7911 23.7785 22.2446 22.3287C23.6982 20.8788 24.8483 19.1539 25.6278 17.2545C26.4072 15.3552 26.8004 13.3196 26.7844 11.2667C26.7844 11.04 26.7844 10.8 26.7844 10.56C27.8306 9.77975 28.733 8.82324 29.451 7.73334Z" fill="white"/>
</svg>
