<svg width="40" height="42" viewBox="0 0 40 42" fill="none" xmlns="http://www.w3.org/2000/svg">
<path d="M22.204 7.989V27.636C22.204 28.875 21.218 29.878 20 29.878C18.782 29.878 17.854 28.875 17.854 27.636V7.989L10.546 14.538C9.67604 15.364 8.28404 15.305 7.53004 14.361C6.71804 13.476 6.77604 12.06 7.70404 11.234L18.55 1.43999C19.362 0.672993 20.58 0.672993 21.45 1.38099C21.45 1.43999 21.45 1.43999 21.45 1.43999L32.296 11.234C33.224 12.06 33.282 13.476 32.528 14.361C31.716 15.305 30.324 15.364 29.454 14.538L22.204 7.989ZM34.964 33.536C34.964 32.297 35.95 31.353 37.168 31.353C38.386 31.353 39.314 32.297 39.314 33.536V38.964C39.314 40.144 38.386 41.147 37.168 41.147H2.83204C1.67204 41.147 0.686035 40.144 0.686035 38.964V33.536C0.686035 32.297 1.67204 31.353 2.83204 31.353C4.05004 31.353 5.03604 32.297 5.03604 33.536V36.722H34.964V33.536Z" fill="#828282" fill-opacity="0.6"/>
</svg>
